<?xml version="1.0" encoding="iso-8859-1"?>
<!-- Generator: Adobe Illustrator 18.0.0, SVG Export Plug-In . SVG Version: 6.00 Build 0)  -->
<!DOCTYPE svg PUBLIC "-//W3C//DTD SVG 1.1//EN" "http://www.w3.org/Graphics/SVG/1.1/DTD/svg11.dtd">
<svg fill="#28a745" version="1.1" id="Capa_1" xmlns="http://www.w3.org/2000/svg" xmlns:xlink="http://www.w3.org/1999/xlink" x="0px" y="0px"
	 viewBox="0 0 269.336 269.336" style="enable-background:new 0 0 269.336 269.336;" xml:space="preserve">
<g>
	<path d="M169.299,133.038c-6.564,0-11.905,5.341-11.905,11.905c0,6.565,5.341,11.906,11.905,11.906
		c6.565,0,11.906-5.341,11.906-11.906C181.205,138.379,175.864,133.038,169.299,133.038z"/>
	<path d="M100.037,85.946c-6.564,0-11.905,5.341-11.905,11.906c0,6.564,5.341,11.905,11.905,11.905
		c6.565,0,11.906-5.341,11.906-11.905C111.943,91.287,106.603,85.946,100.037,85.946z"/>
	<path d="M251.521,163.13c-1.624-4.27-5.717-7.092-10.285-7.092h-21.072V21.29c0-11.758-9.532-21.29-21.29-21.29H70.463
		c-11.758,0-21.29,9.532-21.29,21.29v134.748H28.1c-4.568,0-8.661,2.822-10.284,7.092c-1.624,4.27-0.441,9.099,2.972,12.134
		l99.732,88.691c8.068,7.175,20.229,7.175,28.297,0l99.733-88.691C251.962,172.229,253.145,167.399,251.521,163.13z M73.132,97.853
		c0-14.836,12.069-26.906,26.905-26.906c14.836,0,26.906,12.07,26.906,26.906c0,14.836-12.07,26.905-26.906,26.905
		C85.201,124.758,73.132,112.688,73.132,97.853z M115.355,175.623c-1.323,2.603-3.959,4.103-6.691,4.103
		c-1.144,0-2.304-0.263-3.394-0.816c-3.692-1.877-5.163-6.393-3.286-10.085l51.683-101.651c1.878-3.691,6.393-5.162,10.085-3.286
		c3.692,1.877,5.163,6.393,3.286,10.085L115.355,175.623z M169.299,171.85c-14.836,0-26.905-12.07-26.905-26.906
		c0-14.836,12.069-26.905,26.905-26.905c14.836,0,26.906,12.069,26.906,26.905C196.205,159.779,184.135,171.85,169.299,171.85z"/>
</g>
<g>
</g>
<g>
</g>
<g>
</g>
<g>
</g>
<g>
</g>
<g>
</g>
<g>
</g>
<g>
</g>
<g>
</g>
<g>
</g>
<g>
</g>
<g>
</g>
<g>
</g>
<g>
</g>
<g>
</g>
</svg>
