<svg width="24" height="24" fill="none" xmlns="http://www.w3.org/2000/svg"><path fill-rule="evenodd" clip-rule="evenodd" d="M3 5l9-4 9 4v6c0 5.55-3.84 10.74-9 12-5.16-1.26-9-6.45-9-12V5zm9 15.93c4.02-1.24 7-5.41 7-9.93V6.3l-7-3.11L5 6.3V11c0 4.52 2.98 8.69 7 9.93z" fill="#fff"/><path fill-rule="evenodd" clip-rule="evenodd" d="M15 10h-.5V9a2.5 2.5 0 00-5 0v1H9c-.55 0-1 .45-1 1v5c0 .55.45 1 1 1h6c.55 0 1-.45 1-1v-5c0-.55-.45-1-1-1zm-4.5-1c0-.83.67-1.5 1.5-1.5s1.5.67 1.5 1.5v1h-3V9zm2.5 4.5a1 1 0 01-.99 1h-.02a1 1 0 111.01-1z" fill="#fff"/></svg>